<svg t="1750928754974" class="icon" viewBox="0 0 1024 1024" version="1.1"
  xmlns="http://www.w3.org/2000/svg" p-id="3540" width="16" height="16">
  <path
    d="M162.706286 766.573714c0 59.574857 36.022857 94.72 96.438857 94.72h505.709714c60.434286 0 96.438857-35.145143 96.438857-94.72V257.426286c0-59.574857-36.022857-94.72-96.438857-94.72H259.145143c-60.434286 0-96.438857 35.145143-96.438857 94.72z m69.010285-16.274285V273.700571c0-26.148571 15.433143-42.002286 41.142858-42.002285h478.281142c25.709714 0 41.142857 15.853714 41.142858 42.002285V750.262857c0 26.148571-15.433143 42.002286-41.142858 42.002286H272.859429c-25.709714 0-41.142857-15.853714-41.142858-42.002286z"
    fill="" p-id="3541"></path>
</svg>